<?xml version="1.0" standalone="no"?>
<!DOCTYPE svg PUBLIC "-//W3C//DTD SVG 20010904//EN"
 "http://www.w3.org/TR/2001/REC-SVG-20010904/DTD/svg10.dtd">
<svg version="1.0" xmlns="http://www.w3.org/2000/svg"
 width="1392.000000pt" height="901.000000pt" viewBox="0 0 1392.000000 901.000000"
 preserveAspectRatio="xMidYMid meet">

<g transform="translate(0.000000,901.000000) scale(0.100000,-0.100000)"
fill="#000000" stroke="none">
<path d="M13055 8964 c-104 -43 -271 -92 -423 -124 -160 -34 -283 -72 -388
-120 -88 -40 -218 -127 -273 -184 l-45 -46 -66 68 c-181 187 -400 274 -795
317 -147 16 -335 51 -431 80 -27 8 -52 15 -55 15 -4 0 -5 -75 -2 -167 4 -117
0 -214 -11 -319 -39 -366 -4 -617 112 -811 38 -63 140 -188 148 -181 2 2 -7
33 -18 68 -19 56 -22 87 -22 225 0 145 3 173 31 290 31 129 46 216 58 348 5
46 11 67 18 63 125 -53 220 -85 361 -121 199 -51 287 -85 388 -151 276 -178
362 -485 249 -889 -11 -38 -18 -71 -16 -73 9 -9 90 109 124 182 74 154 83 199
88 411 6 219 -9 319 -69 469 l-35 86 51 19 c74 27 193 49 331 61 150 13 263
33 377 66 16 5 17 -5 11 -133 -3 -82 -1 -198 6 -284 27 -319 -36 -539 -199
-693 -135 -126 -314 -191 -570 -205 l-125 -6 60 -23 c233 -91 536 -61 820 80
84 42 187 111 219 147 11 11 25 21 33 21 19 0 119 -157 157 -248 18 -42 51
-122 74 -177 23 -55 65 -138 92 -184 28 -46 50 -87 50 -90 0 -3 -58 -20 -128
-37 -70 -17 -180 -52 -245 -78 -171 -66 -263 -88 -398 -94 -95 -4 -130 -1
-198 17 -236 59 -402 238 -517 556 -39 110 -49 98 -41 -48 6 -117 34 -234 77
-326 83 -176 264 -395 406 -490 290 -195 645 -183 1040 35 151 83 308 157 424
200 58 21 107 39 108 40 2 2 -21 33 -51 71 -71 89 -170 241 -242 373 -146 267
-315 454 -495 545 -19 10 -36 19 -38 20 -2 2 15 30 37 64 75 117 131 324 131
486 0 95 -18 227 -55 410 -35 174 -55 332 -55 436 0 32 -3 59 -7 59 -5 -1 -35
-12 -68 -26z"/>
<path d="M1740 8014 c-300 -36 -547 -104 -775 -213 -406 -194 -710 -513 -819
-859 -59 -187 -56 -88 -55 -2116 1 -1023 4 -2003 8 -2176 l6 -315 29 -55 c38
-73 117 -147 204 -193 301 -159 723 -63 858 193 l29 55 5 2185 c5 2128 6 2186
24 2230 66 153 206 284 376 349 127 49 224 64 379 58 163 -6 233 -23 366 -87
155 -74 261 -181 318 -322 l22 -53 5 -2575 5 -2575 33 -67 c21 -44 51 -84 88
-117 61 -56 186 -121 274 -142 79 -20 270 -17 350 4 163 43 295 143 354 266
l31 66 5 2185 5 2185 23 57 c32 78 100 168 169 223 69 55 215 128 298 149 154
39 342 40 487 1 269 -70 462 -252 499 -470 9 -52 11 -299 7 -965 -3 -492 -3
-1273 1 -1735 l6 -840 34 -63 c62 -114 196 -208 351 -249 88 -22 264 -23 350
0 115 30 220 89 288 161 74 80 101 146 109 269 3 48 7 87 9 87 1 0 54 -13 116
-29 324 -83 653 -100 983 -52 316 47 619 158 860 315 47 31 88 56 90 56 2 0
42 -25 89 -55 246 -161 563 -275 892 -321 156 -22 490 -25 634 -5 280 38 512
108 740 223 197 99 315 183 460 328 175 174 289 362 348 577 l27 98 0 1620 0
1620 -29 58 c-40 82 -121 159 -220 207 -310 153 -723 48 -849 -217 l-32 -68
-5 -1575 c-5 -1480 -6 -1578 -23 -1620 -29 -73 -75 -136 -147 -203 -154 -142
-380 -216 -620 -203 -134 7 -240 34 -359 92 -122 60 -240 172 -292 279 l-34
70 -6 535 c-4 294 -7 1004 -8 1576 l-1 1041 -36 71 c-84 170 -287 274 -529
274 -235 0 -437 -101 -526 -264 l-34 -63 -7 -1563 c-8 -1736 -3 -1614 -76
-1727 -88 -136 -253 -248 -437 -296 -118 -32 -336 -32 -460 -1 -231 58 -412
199 -491 382 -18 43 -19 89 -25 1150 -5 988 -7 1112 -22 1175 -27 112 -56 194
-104 290 -235 473 -777 810 -1448 900 -163 22 -461 22 -630 0 -134 -17 -388
-77 -484 -114 -30 -11 -56 -20 -57 -18 -1 1 -19 31 -39 67 -64 113 -126 192
-235 300 -275 273 -640 450 -1095 531 -96 17 -168 22 -360 24 -132 2 -256 1
-275 -1z"/>
<path d="M13320 7755 c0 -22 4 -25 40 -25 l40 0 0 -120 0 -120 30 0 30 0 0
120 0 120 40 0 c36 0 40 3 40 25 l0 25 -110 0 -110 0 0 -25z"/>
<path d="M13570 7635 l0 -145 25 0 c24 0 25 3 26 63 0 34 3 80 7 102 7 38 8
36 31 -62 22 -100 24 -103 50 -103 27 0 28 3 53 108 l25 107 8 -107 c7 -105 8
-108 31 -108 l24 0 0 145 0 145 -44 0 -43 0 -24 -90 c-12 -49 -26 -90 -30 -90
-3 0 -17 41 -30 90 l-23 90 -43 0 -43 0 0 -145z"/>
<path d="M170 1724 c-53 -16 -112 -69 -141 -126 -25 -48 -29 -140 -9 -190 62
-153 250 -207 376 -107 62 48 94 112 94 187 0 78 -19 125 -73 180 -65 66 -152
86 -247 56z"/>
<path d="M880 1725 c-49 -16 -120 -77 -147 -128 -24 -45 -24 -151 0 -199 53
-107 171 -154 277 -112 22 9 47 14 55 10 21 -8 19 -80 -4 -155 -37 -118 -110
-205 -226 -268 -62 -34 -70 -42 -73 -71 -4 -41 3 -40 98 1 238 104 374 275
399 501 10 87 -2 192 -28 251 -25 58 -92 129 -145 154 -56 28 -149 35 -206 16z"/>
<path d="M4370 995 l0 -535 75 0 75 0 0 338 c1 219 4 331 10 321 13 -22 157
-370 162 -389 2 -8 5 -17 8 -20 9 -8 103 -234 103 -247 1 -26 34 7 47 46 7 23
16 41 20 41 4 0 7 6 7 13 0 14 74 200 82 207 3 3 7 12 9 20 6 28 76 195 85
201 5 3 7 9 6 13 -4 11 55 156 64 156 4 0 7 -157 7 -350 l0 -350 140 0 140 0
0 535 0 535 -137 0 -138 0 -54 -133 c-30 -72 -57 -134 -60 -137 -4 -3 -7 -12
-9 -20 -5 -28 -106 -265 -114 -268 -5 -2 -6 -8 -3 -12 3 -5 2 -11 -3 -14 -8
-5 -242 547 -242 572 0 9 -35 12 -140 12 l-140 0 0 -535z"/>
<path d="M5915 1518 c-3 -7 -50 -146 -105 -308 -55 -162 -104 -304 -109 -315
-5 -11 -10 -24 -11 -30 -16 -59 -113 -332 -122 -342 -6 -7 -8 -13 -4 -13 3 0
1 -11 -4 -25 l-10 -26 72 3 71 3 50 150 c28 83 55 153 61 157 6 4 89 8 184 8
l173 0 15 -35 c8 -19 16 -42 17 -52 2 -10 9 -29 15 -43 7 -14 24 -61 39 -105
l28 -80 153 -3 154 -3 -8 23 c-4 13 -42 119 -85 237 -43 117 -80 221 -81 230
-2 9 -5 18 -8 21 -8 8 -143 382 -143 397 0 7 -3 13 -7 13 -8 0 -36 90 -32 103
1 4 -2 7 -8 7 -5 0 -10 9 -10 20 0 19 -7 20 -140 20 -103 0 -142 -3 -145 -12z
m124 -391 c29 -81 54 -153 55 -160 2 -6 8 -23 13 -37 l10 -25 -68 -3 c-38 -2
-100 -2 -139 0 l-69 3 59 179 c73 222 69 211 79 200 4 -5 32 -75 60 -157z"/>
<path d="M6638 1293 c52 -131 95 -242 96 -248 1 -5 8 -20 14 -32 7 -13 9 -23
5 -23 -4 0 -3 -4 4 -8 6 -4 13 -16 15 -27 1 -11 6 -22 10 -25 3 -3 8 -14 10
-25 1 -11 6 -22 10 -25 3 -3 8 -14 10 -25 1 -11 6 -22 9 -25 3 -3 40 -90 81
-195 l76 -190 24 55 c13 30 64 153 114 272 49 120 92 218 95 218 3 0 54 -123
115 -273 l109 -273 16 36 c8 19 49 116 89 215 41 99 76 182 79 185 3 3 7 12 9
20 4 20 175 434 182 440 3 3 6 12 8 20 2 8 16 47 32 87 17 39 30 74 30 77 0 3
-28 6 -63 6 l-62 0 -18 -51 c-10 -28 -28 -72 -39 -97 -12 -26 -22 -53 -24 -59
-4 -20 -58 -157 -64 -163 -3 -3 -6 -12 -8 -20 -8 -41 -75 -201 -82 -193 -10
12 -193 502 -193 519 0 7 -4 14 -8 14 -4 0 -9 10 -11 23 -3 22 -6 22 -155 25
l-153 3 20 -51 c11 -27 17 -50 14 -50 -4 0 -1 -6 5 -14 16 -19 111 -263 111
-284 0 -9 -10 -37 -22 -62 -11 -25 -23 -54 -25 -65 -2 -10 -8 -22 -14 -26 -6
-3 -10 -9 -10 -13 3 -22 0 -36 -10 -36 -5 0 -8 4 -5 9 4 5 3 11 -2 13 -7 3
-117 293 -124 328 -2 8 -5 17 -8 20 -3 3 -24 55 -46 115 l-41 110 -150 3 -149
3 94 -238z"/>
<path d="M8000 995 l0 -535 340 0 340 0 0 65 0 65 -195 0 -195 0 0 470 0 470
-145 0 -145 0 0 -535z"/>
<path d="M9085 1518 c-3 -7 -28 -80 -56 -163 -27 -82 -55 -155 -61 -162 -6 -7
-8 -13 -5 -13 8 0 -101 -321 -115 -337 -6 -7 -8 -13 -5 -13 6 0 -98 -314 -110
-334 -20 -32 -12 -37 60 -34 l70 3 50 150 c28 83 55 153 61 157 6 4 90 8 186
8 l175 0 38 -109 c21 -60 40 -115 41 -122 2 -8 11 -31 20 -51 l16 -38 150 0
c83 0 150 2 150 4 0 2 -6 22 -14 44 -8 22 -12 43 -9 46 4 3 2 6 -4 6 -10 0
-41 90 -34 99 1 2 -1 7 -6 10 -8 6 -139 358 -145 391 -2 8 -5 17 -9 20 -3 3
-41 105 -85 227 l-79 223 -138 0 c-101 0 -139 -3 -142 -12z m80 -268 c4 -16 6
-33 5 -36 -1 -4 2 -10 7 -13 5 -3 31 -67 57 -141 27 -74 50 -140 53 -147 4
-10 -25 -13 -137 -13 -110 0 -139 3 -133 13 4 6 9 19 10 28 3 19 103 330 110
342 8 13 21 -2 28 -33z"/>
<path d="M9890 996 l0 -534 78 -4 77 -3 -3 388 c-1 224 1 387 7 387 4 0 40
-48 78 -107 39 -60 111 -171 161 -248 50 -77 91 -144 91 -149 -1 -5 4 -12 9
-15 14 -8 153 -221 145 -221 -4 0 2 -7 13 -15 13 -10 44 -14 97 -15 l77 0 0
535 0 535 -75 0 -75 0 0 -282 0 -283 -78 120 c-195 300 -277 431 -274 438 1 4
-72 7 -163 7 l-165 0 0 -534z"/>
<path d="M11225 1518 c-2 -7 -34 -101 -70 -208 -36 -107 -70 -206 -76 -220 -6
-14 -11 -26 -10 -27 1 -10 -112 -330 -121 -340 -6 -7 -8 -13 -5 -13 3 0 -12
-53 -34 -117 -21 -64 -39 -121 -39 -125 0 -4 31 -8 68 -8 l69 0 12 42 c7 23
18 53 24 67 6 14 11 29 12 34 2 4 4 9 5 12 1 3 4 10 5 15 1 6 4 12 5 15 1 3 4
10 5 15 1 6 3 11 4 13 2 1 4 13 7 26 2 13 10 36 17 50 l12 26 183 3 c157 2
182 0 183 -13 2 -21 4 -26 17 -55 6 -14 29 -74 50 -135 l39 -110 153 -3 c142
-2 152 -1 147 15 -2 10 -21 61 -40 115 -20 53 -33 99 -30 102 4 3 2 6 -4 6
-10 0 -41 90 -34 99 1 2 -1 7 -6 10 -8 6 -139 358 -145 391 -2 8 -6 17 -9 20
-3 3 -30 74 -60 157 l-54 153 -138 0 c-101 0 -139 -3 -142 -12z m99 -315 c14
-40 22 -73 18 -73 -4 0 -2 -4 4 -8 5 -4 25 -50 44 -102 18 -52 35 -101 38
-107 3 -10 -27 -13 -132 -13 -106 0 -136 3 -136 13 0 12 41 141 57 177 3 8 7
20 9 27 4 22 47 158 51 166 9 15 20 -5 47 -80z"/>
<path d="M615 507 c-56 -27 -107 -79 -131 -135 -21 -48 -22 -156 -2 -203 58
-135 218 -197 346 -133 156 78 190 295 65 420 -48 49 -89 66 -163 71 -53 3
-74 0 -115 -20z m160 -8 c54 -14 118 -67 147 -123 31 -57 31 -155 0 -212 -67
-128 -214 -168 -329 -91 -159 106 -127 358 54 423 47 16 72 17 128 3z"/>
<path d="M649 382 c-27 -24 -33 -37 -37 -84 -8 -97 51 -159 136 -143 37 7 82
45 82 69 0 19 -52 34 -58 17 -6 -17 -32 -41 -46 -41 -45 0 -73 88 -42 135 20
30 61 33 77 7 8 -13 20 -17 40 -14 37 5 36 16 0 53 -41 41 -107 41 -152 1z"/>
<path d="M1118 423 c-9 -10 -18 -35 -22 -55 -7 -36 -5 -38 19 -38 20 0 25 5
25 24 0 33 25 53 45 36 24 -20 18 -54 -20 -106 -19 -27 -41 -58 -49 -69 -8
-11 -17 -39 -21 -62 l-7 -43 76 0 c74 0 76 1 76 25 0 23 -3 25 -50 25 -59 0
-59 10 2 79 81 93 69 201 -22 201 -23 0 -43 -7 -52 -17z"/>
<path d="M1302 424 c-21 -14 -22 -22 -22 -148 0 -116 2 -135 18 -149 26 -24
87 -22 112 3 18 18 20 33 20 145 0 112 -2 127 -20 145 -24 24 -77 26 -108 4z
m66 -32 c9 -6 12 -38 10 -123 -3 -106 -4 -114 -23 -114 -19 0 -20 8 -23 109
-3 135 1 150 36 128z"/>
<path d="M1490 420 c-12 -12 -20 -33 -20 -55 0 -28 4 -35 20 -35 13 0 20 7 20
18 0 10 6 27 14 38 14 18 16 18 32 2 24 -23 11 -76 -30 -124 -45 -53 -56 -76
-56 -118 l0 -36 70 0 c68 0 70 1 70 25 0 23 -4 25 -45 25 -56 0 -58 15 -11 67
42 47 66 94 66 128 0 28 -16 66 -34 77 -22 15 -76 8 -96 -12z"/>
<path d="M1687 328 c-26 -62 -47 -123 -47 -135 0 -21 5 -23 50 -23 49 0 50 -1
50 -30 0 -25 4 -30 25 -30 21 0 25 5 25 30 0 17 5 30 10 30 6 0 10 11 10 25 0
14 -4 25 -10 25 -6 0 -10 43 -10 110 l0 110 -28 0 c-26 0 -31 -7 -75 -112z
m53 -53 c0 -53 -1 -55 -26 -55 -17 0 -24 4 -21 13 29 72 40 97 43 97 2 0 4
-25 4 -55z"/>
<path d="M1946 413 c-9 -44 -46 -277 -46 -290 0 -7 9 -13 20 -13 15 0 22 9 27
30 5 26 10 30 39 30 31 0 34 -3 34 -30 0 -25 4 -30 25 -30 31 0 31 0 5 160
-29 180 -25 170 -64 170 -29 0 -35 -4 -40 -27z m57 -195 c-2 -5 -13 -8 -24 -8
-22 0 -23 10 -7 99 l12 66 12 -75 c6 -41 10 -78 7 -82z"/>
<path d="M2100 275 l0 -165 25 0 c23 0 24 3 27 68 3 61 5 67 23 64 28 -5 28
-6 33 -72 4 -56 6 -60 30 -60 24 0 25 1 20 65 -3 36 -11 72 -18 81 -10 11 -10
18 -2 26 7 7 12 38 12 69 0 72 -19 89 -97 89 l-53 0 0 -165z m106 89 c9 -34
-10 -74 -36 -74 -17 0 -20 6 -20 50 0 47 2 50 25 50 18 0 26 -7 31 -26z"/>
<path d="M2290 275 l0 -165 25 0 25 0 0 165 0 165 -25 0 -25 0 0 -165z"/>
<path d="M2397 423 c-41 -46 -29 -104 34 -169 32 -32 40 -48 37 -70 -4 -40
-42 -41 -46 -1 -3 21 -9 27 -28 27 -27 0 -32 -26 -13 -63 16 -30 28 -37 70
-37 47 0 69 25 69 76 -1 46 -15 74 -51 103 -15 11 -32 34 -39 51 -11 27 -11
34 3 47 13 13 19 14 31 3 9 -7 16 -19 16 -26 0 -8 9 -14 20 -14 26 0 28 50 2
73 -25 22 -85 22 -105 0z"/>
<path d="M2630 275 c0 -158 1 -165 20 -165 19 0 20 7 21 108 l1 107 14 -75 c7
-41 16 -90 19 -107 5 -26 11 -33 29 -33 22 0 25 6 36 86 20 143 28 150 29 27
1 -106 2 -113 21 -113 19 0 20 7 20 165 l0 165 -34 0 -33 0 -17 -107 c-9 -59
-18 -109 -20 -110 -2 -2 -11 46 -21 107 l-18 110 -33 0 -34 0 0 -165z"/>
<path d="M2920 434 c0 -3 -11 -75 -25 -160 -14 -85 -25 -157 -25 -160 0 -3 10
-4 23 -2 16 2 23 11 25 30 3 24 8 28 36 28 29 0 34 -4 40 -30 4 -24 11 -30 32
-30 17 0 24 4 21 13 -2 6 -15 81 -28 165 l-23 152 -38 0 c-21 0 -38 -2 -38 -6z
m54 -167 c7 -57 7 -57 -19 -57 -25 0 -27 3 -22 33 3 17 9 55 13 82 6 42 8 46
14 25 4 -14 10 -52 14 -83z"/>
<path d="M3070 295 c0 -132 2 -147 20 -165 13 -13 33 -20 59 -20 64 0 71 19
71 187 0 136 -1 143 -20 143 -19 0 -20 -7 -20 -128 0 -135 -10 -172 -44 -159
-14 6 -16 26 -16 147 l0 140 -25 0 -25 0 0 -145z"/>
<path d="M3260 275 l0 -165 65 0 c63 0 65 1 65 25 0 23 -4 25 -40 25 l-40 0 0
140 0 140 -25 0 -25 0 0 -165z"/>
<path d="M3455 428 c-2 -7 -15 -82 -28 -165 l-23 -153 22 0 c16 0 23 8 28 31
5 27 9 30 38 27 28 -2 34 -8 36 -30 3 -22 9 -28 28 -28 13 0 24 5 24 11 0 10
-16 110 -45 287 -5 29 -9 32 -41 32 -19 0 -36 -6 -39 -12z m54 -185 c1 -27 -3
-33 -20 -33 -20 0 -21 3 -14 68 4 37 10 72 13 77 7 11 20 -59 21 -112z"/>
<path d="M3610 276 c0 -158 1 -166 20 -166 18 0 20 8 22 113 l3 112 18 -60
c11 -33 26 -84 34 -112 12 -45 18 -53 39 -53 l24 0 0 165 c0 158 -1 165 -20
165 -19 0 -20 -7 -20 -92 0 -50 -3 -89 -6 -86 -3 4 -16 44 -28 90 -22 80 -24
83 -54 86 l-32 3 0 -165z"/>
<path d="M3846 413 c-9 -44 -46 -277 -46 -290 0 -7 9 -13 20 -13 15 0 22 9 27
30 5 26 10 30 39 30 31 0 34 -3 34 -30 0 -25 4 -30 25 -30 31 0 31 0 5 160
-29 180 -25 170 -64 170 -29 0 -35 -4 -40 -27z m57 -195 c-2 -5 -13 -8 -24 -8
-22 0 -23 10 -7 99 l12 66 12 -75 c6 -41 10 -78 7 -82z"/>
<path d="M4340 105 l0 -95 1868 0 1867 0 70 82 c39 45 74 87 78 95 7 11 -322
13 -1938 13 l-1945 0 0 -95z"/>
<path d="M8204 128 c-32 -40 -67 -82 -77 -95 l-18 -23 1900 0 1901 0 0 95 0
95 -1823 0 -1823 0 -60 -72z"/>
</g>
</svg>
