<svg id="svg" version="1.1" xmlns="http://www.w3.org/2000/svg" xmlns:xlink="http://www.w3.org/1999/xlink" width="400" height="252.01149425287355" viewBox="0, 0, 400,252.01149425287355"><g id="svgg"><path id="path0" d="M50.914 21.326 C 48.004 21.582,43.243 22.240,42.877 22.437 C 42.653 22.558,41.052 22.958,39.319 23.327 C 37.587 23.696,35.772 24.166,35.287 24.371 C 34.802 24.576,33.384 25.089,32.136 25.510 C 30.888 25.932,29.698 26.411,29.490 26.576 C 29.282 26.742,28.338 27.197,27.392 27.589 C 26.447 27.981,25.539 28.427,25.376 28.580 C 25.212 28.734,24.313 29.243,23.377 29.711 C 22.442 30.180,21.676 30.642,21.676 30.740 C 21.676 30.837,21.364 31.072,20.983 31.261 C 17.598 32.944,12.280 38.040,8.101 43.604 C 7.281 44.697,4.557 50.172,4.389 51.066 C 4.301 51.537,4.140 51.922,4.032 51.922 C 3.827 51.922,3.252 54.155,2.734 56.963 C 2.355 59.015,2.419 182.709,2.799 184.459 C 3.068 185.694,3.701 187.312,3.996 187.515 C 4.104 187.589,4.553 188.181,4.995 188.830 C 5.437 189.479,6.014 190.079,6.278 190.163 C 6.543 190.247,6.816 190.465,6.886 190.647 C 7.165 191.373,10.954 193.292,13.106 193.796 C 17.244 194.766,18.036 194.880,19.786 194.763 C 22.884 194.555,27.962 193.309,28.463 192.633 C 28.543 192.526,29.056 192.212,29.605 191.934 C 32.071 190.689,34.650 187.641,35.450 185.026 C 35.732 184.106,35.791 173.309,35.791 122.256 C 35.791 54.948,35.707 58.902,37.188 56.653 C 37.529 56.136,37.807 55.589,37.807 55.438 C 37.807 53.582,45.669 48.433,49.910 47.512 C 50.393 47.407,50.844 47.234,50.914 47.128 C 51.422 46.346,62.176 46.374,62.466 47.158 C 62.512 47.283,62.767 47.385,63.033 47.385 C 63.711 47.385,67.926 48.764,68.341 49.121 C 68.529 49.284,69.388 49.838,70.251 50.354 C 73.148 52.087,75.953 55.294,77.024 58.097 C 77.493 59.325,77.506 61.207,77.565 132.577 C 77.602 177.540,77.717 205.992,77.862 206.301 C 77.992 206.578,78.164 207.202,78.245 207.687 C 78.457 208.962,79.489 211.056,80.400 212.057 C 80.833 212.532,81.322 213.084,81.488 213.282 C 82.543 214.546,87.418 217.013,88.859 217.013 C 89.037 217.013,89.221 217.119,89.267 217.247 C 89.550 218.037,99.486 218.037,99.769 217.247 C 99.815 217.119,100.016 217.013,100.215 217.013 C 103.156 217.013,108.644 212.983,110.030 209.806 C 110.388 208.987,110.815 208.091,110.979 207.813 C 111.208 207.429,111.309 192.366,111.405 144.423 L 111.531 81.537 112.116 80.088 C 112.438 79.291,112.793 78.639,112.905 78.639 C 113.017 78.639,113.256 78.282,113.437 77.845 C 115.634 72.541,126.556 68.102,135.159 69.018 C 137.894 69.309,143.980 71.136,144.404 71.793 C 144.484 71.917,145.039 72.266,145.638 72.570 C 146.916 73.218,150.467 76.531,150.978 77.553 C 151.172 77.942,151.520 78.488,151.750 78.765 C 153.207 80.520,153.107 76.880,153.245 132.955 C 153.341 171.842,153.443 184.242,153.671 184.625 C 153.836 184.902,154.247 185.764,154.584 186.540 C 158.504 195.547,176.386 197.258,183.574 189.314 C 183.875 188.981,184.437 188.357,184.822 187.927 C 185.896 186.730,186.515 184.378,186.515 181.497 L 186.515 179.052 188.721 179.631 C 189.934 179.949,191.493 180.366,192.187 180.558 C 197.319 181.980,210.526 182.514,217.517 181.584 C 220.357 181.206,223.284 180.671,224.323 180.339 C 224.946 180.140,226.761 179.621,228.355 179.185 C 229.950 178.750,231.311 178.321,231.380 178.233 C 231.449 178.144,232.290 177.800,233.248 177.468 C 235.574 176.660,242.815 172.966,243.352 172.312 C 244.495 170.921,246.116 170.789,247.317 171.991 C 247.514 172.188,248.343 172.705,249.159 173.141 C 249.976 173.577,250.818 174.084,251.031 174.268 C 251.244 174.453,252.155 174.922,253.056 175.312 C 253.957 175.701,254.865 176.151,255.072 176.312 C 255.280 176.473,256.188 176.867,257.089 177.188 C 257.990 177.509,259.206 177.982,259.791 178.240 C 260.722 178.649,265.628 180.060,268.552 180.759 C 276.421 182.640,293.577 182.361,300.271 180.244 C 301.127 179.973,302.791 179.497,303.970 179.187 C 305.148 178.877,306.396 178.478,306.742 178.301 C 307.089 178.124,307.940 177.786,308.633 177.550 C 309.915 177.113,315.586 174.456,315.816 174.184 C 315.885 174.102,316.566 173.705,317.328 173.302 C 318.091 172.899,318.985 172.305,319.316 171.981 C 319.647 171.657,320.047 171.393,320.205 171.393 C 320.363 171.393,320.838 171.081,321.261 170.699 C 321.683 170.318,322.468 169.698,323.005 169.320 C 325.423 167.621,330.759 161.878,331.792 159.861 C 332.023 159.411,332.301 159.042,332.409 159.042 C 332.517 159.042,332.996 158.220,333.474 157.215 C 333.951 156.210,334.477 155.244,334.642 155.069 C 334.807 154.894,335.260 153.760,335.648 152.548 C 336.037 151.337,336.427 150.290,336.515 150.221 C 337.582 149.386,338.496 57.893,337.486 53.028 C 337.076 51.049,333.425 46.125,332.369 46.125 C 332.296 46.125,331.575 45.734,330.768 45.257 C 329.253 44.362,325.920 43.352,324.479 43.352 C 324.028 43.352,323.589 43.239,323.503 43.100 C 323.300 42.771,318.918 42.771,318.715 43.100 C 318.629 43.239,318.190 43.352,317.739 43.352 C 312.973 43.352,307.392 47.154,304.974 52.048 C 304.649 52.705,304.583 58.773,304.469 98.173 C 304.334 144.888,304.330 145.046,303.423 145.692 C 303.318 145.767,302.988 146.383,302.687 147.061 C 302.064 148.470,298.558 152.159,297.164 152.872 C 296.679 153.120,295.999 153.530,295.652 153.782 C 291.945 156.484,278.503 157.848,275.880 155.789 C 275.734 155.674,274.991 155.380,274.228 155.134 C 269.024 153.460,263.861 148.646,263.011 144.675 C 262.908 144.190,262.695 143.712,262.539 143.614 C 262.332 143.482,262.222 131.306,262.130 98.245 L 262.004 53.056 261.432 51.875 C 256.356 41.389,235.544 40.691,230.473 50.837 C 230.071 51.642,229.677 52.357,229.597 52.426 C 229.518 52.495,229.348 52.779,229.219 53.056 C 229.080 53.357,228.935 71.787,228.859 98.677 C 228.725 146.915,228.761 145.539,227.610 146.440 C 227.521 146.509,227.154 147.076,226.793 147.700 C 225.944 149.167,223.252 151.855,221.802 152.682 C 221.178 153.038,220.441 153.521,220.164 153.755 C 219.887 153.989,218.752 154.500,217.643 154.890 C 216.534 155.280,215.506 155.689,215.359 155.800 C 213.737 157.018,203.028 156.984,200.252 155.752 C 199.975 155.629,198.969 155.241,198.017 154.891 C 194.905 153.745,191.111 150.993,189.639 148.814 C 189.272 148.271,188.901 147.769,188.815 147.700 C 188.150 147.167,187.024 143.805,187.021 142.344 C 187.020 141.824,186.909 141.399,186.774 141.399 C 186.617 141.399,186.500 130.215,186.448 110.208 C 186.358 75.516,186.439 77.162,184.639 73.227 C 184.285 72.453,183.995 71.769,183.995 71.708 C 183.995 71.465,182.656 68.675,182.483 68.557 C 182.382 68.488,182.066 67.977,181.781 67.423 C 179.836 63.630,170.033 53.686,168.239 53.686 C 168.120 53.686,167.788 53.475,167.502 53.218 C 167.216 52.960,166.358 52.423,165.595 52.023 C 164.833 51.623,164.149 51.214,164.075 51.115 C 164.001 51.015,163.263 50.639,162.436 50.277 C 161.609 49.916,160.495 49.397,159.960 49.123 C 159.425 48.849,158.127 48.328,157.075 47.965 C 156.024 47.601,154.875 47.155,154.523 46.972 C 154.170 46.789,152.576 46.345,150.980 45.985 C 149.384 45.624,147.882 45.226,147.643 45.098 C 144.158 43.248,121.323 43.240,116.942 45.088 C 116.600 45.232,115.098 45.636,113.604 45.986 C 112.110 46.336,110.409 46.840,109.823 47.106 C 107.783 48.032,108.009 48.170,106.155 44.865 C 104.499 41.914,97.129 33.794,96.085 33.770 C 95.985 33.768,95.507 33.416,95.022 32.988 C 94.537 32.561,93.629 31.914,93.006 31.553 C 92.382 31.191,91.758 30.764,91.619 30.604 C 91.481 30.443,90.630 29.920,89.729 29.441 C 88.828 28.961,87.750 28.382,87.335 28.153 C 85.631 27.215,82.633 25.926,80.798 25.344 C 79.724 25.003,78.713 24.619,78.553 24.491 C 78.223 24.227,71.864 22.684,71.107 22.684 C 70.836 22.684,70.578 22.586,70.531 22.466 C 70.264 21.772,55.555 20.917,50.914 21.326 M5.797 201.900 C 4.438 202.133,3.277 202.560,3.275 202.829 C 3.274 202.937,2.866 203.302,2.368 203.641 C 1.870 203.981,1.354 204.491,1.222 204.776 C 1.090 205.060,0.789 205.633,0.554 206.049 C -0.507 207.924,0.167 212.617,1.707 214.072 C 3.586 215.848,5.086 216.509,7.235 216.509 C 8.645 216.509,11.056 215.661,11.517 215.004 C 11.714 214.723,12.013 214.493,12.182 214.493 C 12.582 214.493,13.850 212.551,14.035 211.657 C 14.113 211.276,14.277 210.964,14.398 210.964 C 14.520 210.964,14.619 210.170,14.619 209.200 C 14.619 208.192,14.511 207.435,14.367 207.435 C 14.228 207.435,14.115 207.200,14.115 206.913 C 14.115 206.188,12.957 204.284,12.224 203.804 C 11.890 203.585,11.413 203.193,11.164 202.934 C 10.332 202.064,7.745 201.566,5.797 201.900 M26.843 201.821 C 24.026 202.098,20.668 204.803,20.668 206.795 C 20.668 207.009,20.555 207.183,20.416 207.183 C 20.270 207.183,20.164 207.982,20.164 209.074 C 20.164 210.166,20.270 210.964,20.416 210.964 C 20.555 210.964,20.668 211.098,20.668 211.263 C 20.668 214.527,27.377 217.398,29.663 215.111 C 30.016 214.759,30.100 214.763,30.528 215.150 C 31.035 215.609,31.165 216.630,30.750 216.887 C 30.611 216.973,30.498 217.317,30.498 217.653 C 30.498 218.673,29.481 221.432,28.823 222.198 C 28.482 222.595,27.973 223.292,27.692 223.747 C 27.410 224.202,27.091 224.575,26.983 224.575 C 26.875 224.575,26.515 224.839,26.184 225.163 C 25.854 225.487,24.959 226.081,24.197 226.485 C 23.434 226.888,22.754 227.283,22.684 227.364 C 22.615 227.444,22.360 227.583,22.117 227.673 C 21.687 227.832,21.422 230.372,21.836 230.372 C 22.163 230.372,24.075 229.761,24.197 229.617 C 24.266 229.535,25.213 229.084,26.301 228.615 C 27.389 228.145,28.337 227.611,28.408 227.428 C 28.478 227.245,28.644 227.095,28.777 227.095 C 29.546 227.095,33.202 223.543,33.949 222.070 C 34.200 221.576,34.640 220.875,34.927 220.512 C 37.156 217.700,37.015 208.080,34.707 205.467 C 33.988 204.652,32.690 203.367,32.158 202.943 C 31.249 202.218,28.565 201.652,26.843 201.821 M248.318 245.758 C 248.141 246.042,246.923 247.510,245.611 249.021 C 244.300 250.532,243.226 251.831,243.226 251.908 C 243.226 251.985,270.391 252.048,303.592 252.048 L 363.957 252.048 363.957 248.645 L 363.957 245.243 306.299 245.243 L 248.640 245.243 248.318 245.758 " stroke="none" fill="#0c54bc" fill-rule="evenodd"></path><path id="path1" d="M374.165 0.958 C 372.779 1.449,371.588 1.931,371.519 2.029 C 371.379 2.227,365.256 3.781,364.615 3.781 C 364.392 3.781,364.209 3.872,364.209 3.984 C 364.209 4.095,363.330 4.331,362.256 4.508 C 359.882 4.899,356.065 5.819,355.892 6.043 C 355.822 6.132,354.988 6.465,354.037 6.782 C 352.171 7.404,347.607 9.678,347.196 10.190 C 347.057 10.363,346.809 10.551,346.644 10.608 C 346.181 10.768,343.037 13.427,343.037 13.658 C 343.037 13.771,342.867 13.863,342.659 13.863 C 342.451 13.863,342.281 13.758,342.281 13.629 C 342.281 13.174,338.746 9.933,337.312 9.073 C 336.510 8.592,335.729 8.080,335.576 7.935 C 335.423 7.790,334.459 7.338,333.433 6.931 C 332.408 6.524,331.508 6.106,331.434 6.003 C 331.239 5.733,325.497 4.285,324.621 4.285 C 324.214 4.285,323.882 4.186,323.882 4.065 C 323.882 3.872,321.643 3.580,316.698 3.127 C 314.273 2.905,310.440 2.285,309.893 2.026 C 309.324 1.756,304.123 0.504,303.572 0.504 C 303.151 0.504,303.058 2.394,303.466 2.647 C 303.779 2.840,303.811 12.400,303.499 12.741 C 302.560 13.769,302.515 29.429,303.448 30.616 C 303.560 30.759,303.729 31.304,303.824 31.828 C 304.266 34.283,306.432 39.095,307.830 40.729 C 309.675 42.884,311.456 44.612,311.834 44.612 C 312.388 44.612,312.425 44.030,311.904 43.509 C 310.060 41.665,309.977 27.382,311.796 25.076 C 312.025 24.786,312.669 20.486,312.919 17.580 C 313.039 16.178,313.184 15.627,313.431 15.627 C 313.840 15.627,315.131 16.172,315.316 16.423 C 315.387 16.520,316.691 16.954,318.214 17.388 C 319.737 17.822,321.153 18.266,321.361 18.375 C 321.569 18.484,322.363 18.710,323.125 18.876 C 326.528 19.619,328.922 20.275,328.922 20.463 C 328.922 20.576,329.045 20.668,329.195 20.668 C 329.653 20.668,333.049 22.210,333.585 22.661 C 333.863 22.894,334.427 23.250,334.840 23.452 C 337.668 24.834,341.093 29.747,341.948 33.648 C 342.161 34.619,342.436 35.610,342.560 35.850 C 342.850 36.414,342.855 41.767,342.566 41.945 C 342.446 42.020,342.271 42.752,342.179 43.572 C 341.907 45.972,340.792 50.255,340.353 50.586 C 339.600 51.153,339.711 59.899,340.479 60.491 C 340.569 60.561,340.842 61.411,341.085 62.382 C 341.514 64.093,343.527 68.401,344.301 69.265 C 344.512 69.499,345.076 70.308,345.555 71.061 C 346.612 72.723,346.723 72.854,349.664 75.893 C 350.952 77.225,352.512 78.631,353.130 79.018 C 353.748 79.406,354.310 79.799,354.379 79.893 C 354.765 80.414,358.990 82.312,360.986 82.861 C 364.392 83.799,375.925 83.155,376.796 81.978 C 376.874 81.873,377.618 81.571,378.450 81.305 C 379.971 80.821,384.676 78.577,386.365 77.531 C 386.863 77.222,387.650 76.817,388.112 76.631 C 388.575 76.444,389.085 76.164,389.246 76.009 C 389.591 75.677,392.507 74.354,392.893 74.354 C 393.039 74.354,393.309 74.209,393.492 74.032 C 393.675 73.854,395.016 73.324,396.471 72.853 C 397.927 72.382,399.156 71.904,399.202 71.789 C 399.248 71.675,399.447 71.582,399.643 71.582 C 400.348 71.582,399.308 69.660,397.880 68.324 C 397.521 67.988,397.227 67.588,397.227 67.435 C 397.227 67.282,396.887 66.785,396.471 66.329 C 396.055 65.874,395.715 65.459,395.715 65.408 C 395.715 65.204,394.065 62.629,393.883 62.548 C 393.776 62.501,393.483 62.047,393.232 61.540 C 392.017 59.087,389.982 55.456,389.237 54.412 C 388.780 53.772,388.406 53.134,388.406 52.994 C 388.406 52.854,388.229 52.593,388.012 52.413 C 387.796 52.233,387.232 51.511,386.760 50.807 C 385.000 48.184,380.385 44.109,377.318 42.470 L 376.374 41.966 376.873 41.084 C 377.148 40.599,377.466 40.143,377.581 40.070 C 377.695 39.998,378.140 39.034,378.569 37.928 C 378.998 36.822,379.453 35.729,379.580 35.499 C 381.018 32.898,381.024 15.627,379.587 15.627 C 379.371 15.627,379.258 15.036,378.575 10.334 C 378.303 8.463,378.004 5.372,377.911 3.466 C 377.712 -0.611,378.019 -0.406,374.165 0.958 M366.143 18.463 C 366.135 21.131,366.173 25.526,366.228 28.229 C 366.331 33.275,366.051 35.678,365.126 37.681 C 362.937 42.424,363.315 41.820,361.003 44.259 C 360.202 45.104,359.188 45.980,358.751 46.206 C 358.314 46.432,357.798 46.775,357.604 46.968 C 357.112 47.461,355.999 47.997,354.379 48.522 C 353.617 48.769,352.936 49.058,352.866 49.163 C 352.543 49.653,344.081 50.844,342.512 50.621 L 341.911 50.536 342.421 50.032 C 342.950 49.509,344.297 47.509,344.297 47.246 C 344.297 47.164,344.456 46.938,344.650 46.744 C 344.845 46.550,345.310 45.565,345.684 44.556 C 346.059 43.548,346.484 42.498,346.629 42.224 C 348.952 37.845,348.331 25.497,345.440 18.583 C 344.987 17.501,344.818 17.646,347.448 16.865 C 350.424 15.982,350.952 15.891,355.406 15.499 C 360.063 15.090,363.252 14.638,363.453 14.360 C 363.522 14.264,364.146 14.070,364.839 13.928 C 365.532 13.786,366.113 13.657,366.129 13.640 C 366.146 13.624,366.152 15.794,366.143 18.463 M374.445 46.440 C 374.845 47.029,375.236 47.568,375.315 47.637 C 375.738 48.008,377.925 52.526,378.474 54.159 C 378.823 55.200,379.269 56.342,379.464 56.697 C 379.660 57.051,380.167 58.130,380.592 59.096 C 381.017 60.061,381.446 60.911,381.546 60.986 C 381.783 61.164,383.432 64.547,383.323 64.630 C 383.277 64.665,382.417 64.836,381.411 65.010 C 380.406 65.184,379.584 65.429,379.584 65.555 C 379.584 65.681,379.386 65.786,379.143 65.789 C 378.464 65.796,373.731 67.235,373.560 67.486 C 373.385 67.744,368.724 69.313,368.134 69.313 C 367.916 69.313,367.738 69.413,367.738 69.534 C 367.738 70.584,356.139 70.630,355.388 69.583 C 355.318 69.486,354.575 69.154,353.736 68.844 C 352.897 68.534,351.887 68.003,351.492 67.663 C 351.096 67.323,350.705 67.044,350.622 67.043 C 350.034 67.037,346.371 62.951,345.362 61.176 C 345.032 60.594,344.682 60.061,344.583 59.990 C 344.354 59.825,343.037 56.860,343.037 56.508 C 343.037 56.362,342.891 56.093,342.711 55.910 C 342.373 55.564,341.185 52.177,341.346 52.017 C 341.396 51.966,342.166 52.155,343.056 52.436 C 343.947 52.717,345.038 53.062,345.480 53.202 C 348.050 54.015,354.396 54.092,356.675 53.338 C 357.284 53.137,358.803 52.719,360.050 52.410 C 361.298 52.101,362.773 51.648,363.327 51.403 C 363.882 51.158,365.072 50.642,365.974 50.255 C 366.875 49.868,367.963 49.291,368.392 48.972 C 368.821 48.654,369.274 48.391,369.400 48.389 C 369.526 48.387,370.479 47.711,371.519 46.887 C 373.787 45.091,373.554 45.126,374.445 46.440 M125.268 220.920 L 125.268 238.185 128.040 238.185 L 130.813 238.185 130.813 228.551 C 130.813 217.913,130.816 217.898,132.222 221.839 C 132.586 222.858,133.083 224.033,133.326 224.449 C 133.569 224.865,134.082 226.084,134.466 227.158 C 134.851 228.233,135.250 229.112,135.354 229.112 C 135.458 229.112,135.602 229.367,135.675 229.679 C 135.915 230.709,137.198 234.025,137.386 234.103 C 137.488 234.144,137.887 235.086,138.273 236.194 L 138.974 238.210 139.836 238.135 C 140.608 238.067,140.736 237.943,141.074 236.940 C 141.281 236.324,141.601 235.587,141.785 235.302 C 141.969 235.016,142.369 234.045,142.673 233.144 C 142.977 232.243,143.423 231.166,143.664 230.750 C 143.906 230.334,144.418 229.086,144.803 227.977 C 145.187 226.868,145.583 225.904,145.683 225.835 C 145.898 225.685,147.448 221.519,147.448 221.091 C 147.448 220.928,147.552 220.794,147.680 220.794 C 147.807 220.794,148.119 220.198,148.373 219.471 L 148.834 218.147 148.900 228.166 L 148.966 238.185 154.130 238.185 L 159.294 238.185 159.294 220.920 L 159.294 203.655 154.190 203.659 L 149.086 203.663 148.477 205.542 C 148.142 206.576,147.792 207.453,147.699 207.491 C 147.607 207.530,147.219 208.412,146.837 209.452 C 146.455 210.491,145.826 212.023,145.438 212.854 C 145.051 213.686,144.542 214.961,144.307 215.687 C 144.073 216.413,143.785 217.067,143.667 217.139 C 143.550 217.212,143.260 217.865,143.023 218.591 C 142.111 221.386,141.937 221.335,140.666 217.895 C 140.205 216.648,139.689 215.400,139.519 215.123 C 139.349 214.846,138.829 213.598,138.365 212.350 C 137.900 211.103,137.451 210.025,137.366 209.956 C 137.282 209.887,136.833 208.809,136.369 207.561 C 135.905 206.314,135.438 205.235,135.331 205.164 C 135.225 205.094,135.060 204.725,134.964 204.345 L 134.791 203.655 130.029 203.655 L 125.268 203.655 125.268 220.920 M173.253 205.860 C 172.881 207.073,172.489 208.180,172.382 208.320 C 172.276 208.459,171.769 209.990,171.257 211.722 C 170.745 213.454,170.238 214.928,170.130 214.997 C 170.023 215.066,169.566 216.371,169.115 217.895 C 168.665 219.420,168.199 220.706,168.080 220.752 C 167.961 220.798,167.864 220.973,167.864 221.140 C 167.864 221.548,166.423 226.017,165.985 226.969 C 165.793 227.385,165.329 228.803,164.952 230.120 C 164.576 231.437,164.187 232.571,164.086 232.640 C 163.901 232.769,162.319 237.521,162.319 237.950 C 162.319 238.081,163.515 238.183,165.028 238.179 L 167.738 238.173 168.153 237.337 C 168.381 236.877,168.934 235.207,169.381 233.625 C 169.828 232.044,170.281 230.693,170.389 230.624 C 170.496 230.555,170.714 230.016,170.872 229.427 L 171.160 228.355 176.542 228.355 L 181.924 228.355 182.097 229.046 C 182.193 229.426,182.359 229.794,182.467 229.865 C 182.575 229.936,183.032 231.185,183.481 232.640 C 183.931 234.096,184.377 235.343,184.471 235.413 C 184.565 235.482,184.814 236.106,185.024 236.799 L 185.406 238.059 190.750 238.127 C 195.780 238.191,196.093 238.168,196.093 237.735 C 196.093 237.184,195.077 234.080,194.838 233.900 C 194.745 233.831,194.293 232.583,193.834 231.128 C 193.375 229.672,192.922 228.425,192.828 228.355 C 192.733 228.286,192.275 227.038,191.808 225.583 C 191.342 224.127,190.884 222.880,190.789 222.810 C 190.695 222.741,190.251 221.550,189.802 220.164 C 189.353 218.778,188.912 217.587,188.821 217.517 C 188.731 217.448,188.273 216.200,187.804 214.745 C 187.335 213.289,186.873 212.042,186.777 211.972 C 186.681 211.903,186.290 210.825,185.908 209.578 C 185.525 208.330,185.006 206.856,184.753 206.301 C 184.500 205.747,184.155 204.924,183.987 204.474 L 183.682 203.655 178.806 203.655 L 173.929 203.655 173.253 205.860 M193.945 204.595 C 194.042 205.113,194.347 205.992,194.621 206.549 C 194.896 207.106,195.472 208.526,195.900 209.704 C 196.329 210.882,196.753 211.903,196.842 211.972 C 196.931 212.042,197.324 213.006,197.715 214.115 C 198.107 215.224,198.561 216.358,198.725 216.635 C 198.889 216.912,199.391 218.160,199.842 219.408 C 200.292 220.655,200.810 221.960,200.991 222.306 C 201.173 222.653,201.691 223.957,202.143 225.205 C 202.594 226.452,203.063 227.599,203.185 227.753 C 203.307 227.907,203.755 229.041,204.182 230.272 C 204.609 231.503,205.043 232.568,205.148 232.639 C 205.253 232.709,205.648 233.674,206.027 234.783 C 207.438 238.920,208.173 239.778,208.725 237.933 C 208.892 237.379,209.118 236.925,209.228 236.925 C 209.338 236.925,209.539 236.556,209.673 236.106 C 210.120 234.616,211.036 232.270,211.377 231.745 C 211.562 231.460,211.941 230.565,212.219 229.757 C 212.497 228.948,212.998 227.707,213.333 226.998 C 213.667 226.289,214.133 225.198,214.369 224.575 C 215.461 221.678,215.306 221.697,216.239 224.348 C 216.697 225.651,217.213 226.944,217.384 227.221 C 217.555 227.498,218.009 228.633,218.394 229.742 C 218.778 230.851,219.246 232.005,219.432 232.306 C 219.619 232.607,220.117 233.849,220.538 235.066 C 220.960 236.282,221.399 237.340,221.515 237.416 C 221.630 237.493,221.801 237.867,221.894 238.248 C 222.265 239.762,223.131 238.544,224.718 234.279 C 225.079 233.308,225.462 232.401,225.570 232.262 C 225.678 232.124,226.144 230.989,226.604 229.742 C 227.065 228.494,227.587 227.244,227.764 226.964 C 227.941 226.683,228.446 225.436,228.886 224.191 C 229.327 222.946,229.768 221.871,229.867 221.802 C 229.967 221.733,230.421 220.655,230.878 219.408 C 231.334 218.160,231.852 216.912,232.029 216.635 C 232.206 216.358,232.641 215.294,232.996 214.271 C 233.350 213.249,233.750 212.280,233.883 212.119 C 234.017 211.958,234.478 210.871,234.909 209.704 C 235.339 208.536,235.784 207.463,235.897 207.319 C 236.143 207.005,237.177 204.241,237.177 203.897 C 237.177 203.757,236.065 203.655,234.549 203.655 L 231.920 203.655 231.432 204.978 C 231.164 205.706,230.686 207.095,230.369 208.066 C 230.052 209.036,229.703 209.889,229.592 209.962 C 229.482 210.035,229.035 211.161,228.598 212.465 C 228.161 213.768,227.657 215.070,227.478 215.357 C 227.299 215.644,226.839 216.843,226.456 218.021 C 226.073 219.200,225.680 220.221,225.583 220.290 C 225.486 220.359,225.358 220.566,225.299 220.750 C 225.240 220.934,224.868 220.140,224.472 218.986 C 224.076 217.831,223.660 216.770,223.547 216.626 C 223.434 216.482,222.996 215.298,222.574 213.995 C 222.151 212.692,221.715 211.562,221.604 211.484 C 221.493 211.406,221.015 210.123,220.542 208.633 C 220.069 207.142,219.606 205.923,219.514 205.923 C 219.422 205.923,219.204 205.413,219.030 204.789 L 218.712 203.655 213.452 203.655 C 209.158 203.655,208.192 203.718,208.192 204.001 C 208.192 204.481,208.920 206.503,209.153 206.669 C 209.258 206.744,209.729 207.940,210.198 209.326 C 210.667 210.712,211.129 211.903,211.223 211.972 C 211.317 212.042,211.714 213.045,212.105 214.203 L 212.816 216.307 212.112 218.424 C 211.725 219.589,211.308 220.542,211.186 220.542 C 211.064 220.542,210.956 220.797,210.945 221.109 C 210.935 221.421,210.593 220.712,210.186 219.534 C 209.780 218.355,209.282 217.043,209.081 216.617 C 208.879 216.191,208.408 214.887,208.034 213.718 C 207.660 212.550,207.276 211.537,207.180 211.468 C 207.085 211.399,206.632 210.208,206.174 208.822 C 205.716 207.435,205.200 206.074,205.027 205.797 C 204.854 205.520,204.636 204.924,204.542 204.474 L 204.371 203.655 199.070 203.655 L 193.769 203.655 193.945 204.595 M239.445 220.920 L 239.445 238.185 250.788 238.185 L 262.130 238.185 262.130 235.539 L 262.130 232.892 255.955 232.892 L 249.779 232.892 249.779 218.273 L 249.779 203.655 244.612 203.655 L 239.445 203.655 239.445 220.920 M273.497 205.395 C 273.206 206.352,272.968 207.260,272.968 207.412 C 272.968 207.563,272.867 207.687,272.743 207.687 C 272.620 207.687,272.445 207.999,272.356 208.381 C 272.050 209.680,270.841 213.358,270.678 213.485 C 270.588 213.554,270.136 214.915,269.674 216.509 C 269.211 218.103,268.754 219.464,268.658 219.534 C 268.562 219.603,268.117 220.851,267.669 222.306 C 267.221 223.762,266.766 225.066,266.659 225.205 C 266.551 225.343,266.104 226.692,265.665 228.203 C 265.226 229.713,264.716 231.187,264.533 231.479 C 264.349 231.771,263.891 233.088,263.514 234.405 C 263.137 235.721,262.728 236.907,262.605 237.038 C 261.769 237.934,262.323 238.185,265.135 238.185 L 267.888 238.185 268.192 237.240 C 268.360 236.720,268.584 236.181,268.690 236.043 C 268.797 235.904,269.249 234.559,269.695 233.053 C 270.141 231.548,270.662 230.016,270.853 229.651 C 271.044 229.285,271.201 228.844,271.202 228.670 C 271.203 228.428,272.454 228.355,276.610 228.355 L 282.016 228.355 282.453 229.742 C 282.693 230.504,282.982 231.128,283.096 231.128 C 283.209 231.128,283.302 231.270,283.301 231.443 C 283.300 231.939,284.867 236.785,285.074 236.925 C 285.176 236.994,285.303 237.278,285.355 237.555 C 285.447 238.038,285.678 238.062,290.930 238.127 C 297.186 238.205,296.824 238.376,295.682 235.871 C 295.282 234.995,294.647 233.314,294.271 232.136 C 293.895 230.958,293.510 229.937,293.415 229.868 C 293.320 229.798,292.861 228.551,292.395 227.095 C 291.928 225.640,291.471 224.392,291.378 224.323 C 291.285 224.253,290.835 223.006,290.378 221.550 C 289.921 220.095,289.466 218.847,289.367 218.778 C 289.268 218.708,288.866 217.631,288.475 216.383 C 288.084 215.135,287.513 213.548,287.207 212.854 C 286.901 212.161,286.341 210.602,285.962 209.389 C 285.583 208.176,285.194 207.183,285.096 207.183 C 284.999 207.183,284.702 206.389,284.436 205.419 L 283.953 203.655 278.989 203.655 L 274.025 203.655 273.497 205.395 M299.181 220.920 L 299.181 238.185 302.205 238.185 L 305.230 238.185 305.230 226.403 L 305.230 214.620 306.049 215.795 C 306.500 216.441,307.064 217.291,307.302 217.684 C 307.977 218.797,308.302 219.294,309.425 220.928 C 309.999 221.763,310.710 222.876,311.004 223.400 C 311.299 223.924,311.651 224.488,311.787 224.653 C 311.922 224.818,312.764 226.087,313.658 227.473 C 314.551 228.859,315.434 230.167,315.620 230.380 C 315.806 230.592,316.332 231.429,316.790 232.240 C 317.247 233.050,317.833 233.941,318.092 234.219 C 318.351 234.497,318.749 235.116,318.977 235.595 C 319.204 236.074,319.587 236.663,319.828 236.904 C 320.068 237.145,320.338 237.531,320.427 237.763 C 320.567 238.127,321.027 238.185,323.748 238.185 L 326.906 238.185 326.906 220.920 L 326.906 203.655 323.882 203.655 L 320.857 203.655 320.840 211.657 C 320.827 217.602,320.753 219.514,320.549 219.093 C 320.399 218.781,320.182 218.526,320.067 218.526 C 319.951 218.526,319.576 217.971,319.233 217.293 C 318.889 216.615,318.462 215.906,318.283 215.718 C 317.824 215.234,316.572 213.282,316.572 213.049 C 316.571 212.942,316.231 212.457,315.816 211.972 C 315.401 211.487,315.061 211.001,315.060 210.892 C 315.060 210.784,314.493 209.863,313.800 208.846 C 313.106 207.828,312.539 206.880,312.539 206.738 C 312.539 206.596,312.258 206.213,311.914 205.887 C 311.569 205.560,311.282 205.180,311.275 205.041 C 311.211 203.781,310.616 203.655,304.749 203.655 L 299.181 203.655 299.181 220.920 M341.144 205.356 C 340.893 206.292,340.605 207.114,340.503 207.183 C 340.401 207.253,339.948 208.500,339.496 209.956 C 339.045 211.411,338.580 212.773,338.462 212.980 C 338.222 213.405,336.601 218.170,335.461 221.802 C 335.047 223.119,334.551 224.537,334.359 224.953 C 334.166 225.369,333.644 226.900,333.198 228.355 C 332.752 229.811,332.302 231.115,332.199 231.254 C 332.096 231.393,331.647 232.697,331.201 234.152 C 330.756 235.608,330.288 236.907,330.161 237.038 C 329.278 237.956,329.863 238.203,332.746 238.130 L 335.561 238.059 335.940 236.673 C 336.149 235.911,336.396 235.230,336.490 235.161 C 336.583 235.091,337.027 233.817,337.476 232.328 C 337.926 230.839,338.425 229.335,338.586 228.986 L 338.878 228.351 344.268 228.416 L 349.658 228.481 350.275 230.246 C 350.615 231.216,351.295 233.201,351.787 234.657 C 352.280 236.112,352.781 237.341,352.901 237.387 C 353.021 237.433,353.119 237.632,353.119 237.828 C 353.119 238.125,354.031 238.185,358.538 238.185 C 364.445 238.185,364.297 238.227,363.647 236.748 C 363.477 236.360,363.273 235.986,363.194 235.917 C 363.116 235.848,362.677 234.600,362.219 233.144 C 361.761 231.689,361.246 230.271,361.073 229.994 C 360.901 229.716,360.443 228.469,360.056 227.221 C 359.670 225.974,359.217 224.726,359.049 224.449 C 358.882 224.171,358.374 222.810,357.921 221.424 C 357.468 220.038,357.010 218.790,356.904 218.652 C 356.798 218.513,356.345 217.265,355.898 215.879 C 355.451 214.493,355.012 213.302,354.921 213.233 C 354.830 213.163,354.373 211.916,353.904 210.460 C 353.435 209.004,352.976 207.757,352.884 207.687 C 352.792 207.618,352.442 206.682,352.106 205.608 L 351.495 203.655 346.547 203.655 L 341.600 203.655 341.144 205.356 M276.940 214.320 C 277.064 214.484,277.548 215.810,278.015 217.265 C 278.483 218.721,278.944 219.968,279.041 220.038 C 279.138 220.107,279.348 220.653,279.509 221.251 C 279.670 221.849,279.864 222.501,279.940 222.700 C 280.057 223.004,279.528 223.062,276.650 223.062 C 274.763 223.062,273.220 222.999,273.220 222.920 C 273.220 222.499,274.861 217.127,275.010 217.064 C 275.106 217.022,275.451 216.027,275.775 214.852 C 276.267 213.068,276.393 212.823,276.539 213.368 C 276.635 213.727,276.815 214.155,276.940 214.320 M344.544 214.241 C 344.638 214.310,345.028 215.388,345.411 216.635 C 345.795 217.883,346.265 219.244,346.457 219.660 C 346.891 220.602,347.574 222.547,347.574 222.842 C 347.574 222.963,346.031 223.062,344.144 223.062 C 341.505 223.062,340.742 222.990,340.834 222.747 C 340.899 222.574,341.257 221.355,341.629 220.038 C 342.002 218.721,342.461 217.303,342.651 216.887 C 342.841 216.471,343.201 215.358,343.452 214.413 C 343.880 212.798,343.922 212.737,344.140 213.404 C 344.268 213.795,344.450 214.171,344.544 214.241 M177.420 215.750 C 177.893 217.268,178.347 218.543,178.428 218.581 C 178.509 218.620,178.846 219.502,179.177 220.542 C 179.507 221.582,179.831 222.574,179.897 222.747 C 179.989 222.990,179.226 223.062,176.587 223.062 C 174.011 223.062,173.157 222.984,173.156 222.747 C 173.155 222.260,174.240 218.667,174.431 218.526 C 174.525 218.456,174.665 218.173,174.742 217.895 C 175.529 215.086,176.231 212.981,176.379 212.984 C 176.478 212.987,176.947 214.231,177.420 215.750 M124.260 248.645 L 124.260 252.048 183.680 252.036 L 243.100 252.023 244.234 250.628 C 244.858 249.860,245.598 248.986,245.878 248.687 C 246.484 248.037,248.099 246.004,248.363 245.558 C 248.512 245.306,236.051 245.243,186.404 245.243 L 124.260 245.243 124.260 248.645 " stroke="none" fill="#fc6404" fill-rule="evenodd"></path><path id="path2" d="" stroke="none" fill="#4860c0" fill-rule="evenodd"></path><path id="path3" d="" stroke="none" fill="#4860c0" fill-rule="evenodd"></path><path id="path4" d="" stroke="none" fill="#4860c0" fill-rule="evenodd"></path></g></svg>